<svg xmlns="http://www.w3.org/2000/svg" 
     xmlns:xlink="http://www.w3.org/1999/xlink" 
     aria-hidden="true" 
     role="img" 
     class="iconify iconify--twemoji" 
     width="35.93" height="32" 
     preserveAspectRatio="xMidYMid meet" 
     viewBox="0 0 24 24">
    <path fill="#FF69B4" d="M12 2C10.3 2 9 3.3 9 5c0 1.1.4 2.1 1 2.8C8.4 8.9 7 10.5 7 12.5c0 2.5 2 4.5 4.5 4.5h1c2.5 0 4.5-2 4.5-4.5 0-2-1.4-3.6-3-4.2C14.6 7.1 15 6.1 15 5c0-1.7-1.3-3-3-3zm0 2c.6 0 1 .4 1 1s-.4 1-1 1-1-.4-1-1 .4-1 1-1zm-1 8c-1.1 0-2 .9-2 2s.9 2 2 2 2-.9 2-2-.9-2-2-2z"></path>
    <path fill="#FFD700" d="M12 2C10.3 2 9 3.3 9 5c0 1.1.4 2.1 1 2.8C8.4 8.9 7 10.5 7 12.5c0 2.5 2 4.5 4.5 4.5h1c2.5 0 4.5-2 4.5-4.5 0-2-1.4-3.6-3-4.2C14.6 7.1 15 6.1 15 5c0-1.7-1.3-3-3-3zm0 2c.6 0 1 .4 1 1s-.4 1-1 1-1-.4-1-1 .4-1 1-1zm-1 8c-1.1 0-2 .9-2 2s.9 2 2 2 2-.9 2-2-.9-2-2-2z"></path>
</svg> 